<svg width="64" height="17" viewBox="0 0 64 17" fill="none" xmlns="http://www.w3.org/2000/svg">
<path d="M7.40907 12.7246H5.91816L9.26816 3.41552H10.8909L14.2409 12.7246H12.75L10.1182 5.10643H10.0454L7.40907 12.7246ZM7.65907 9.07915H12.4954V10.261H7.65907V9.07915ZM15.4761 15.3428V5.74279H16.8034V6.87461H16.917C16.9958 6.72915 17.1094 6.56097 17.2579 6.37006C17.4064 6.17915 17.6125 6.01249 17.8761 5.87006C18.1397 5.72461 18.4882 5.65188 18.9216 5.65188C19.4852 5.65188 19.9882 5.79431 20.4307 6.07915C20.8731 6.364 21.2201 6.77461 21.4716 7.31097C21.7261 7.84734 21.8534 8.49279 21.8534 9.24734C21.8534 10.0019 21.7276 10.6489 21.4761 11.1882C21.2246 11.7246 20.8791 12.1382 20.4397 12.4292C20.0004 12.717 19.4988 12.861 18.9352 12.861C18.511 12.861 18.164 12.7898 17.8943 12.6473C17.6276 12.5049 17.4185 12.3382 17.267 12.1473C17.1155 11.9564 16.9988 11.7867 16.917 11.6382H16.8352V15.3428H15.4761ZM16.8079 9.2337C16.8079 9.72461 16.8791 10.1549 17.0216 10.5246C17.164 10.8943 17.3701 11.1837 17.6397 11.3928C17.9094 11.5989 18.2397 11.7019 18.6307 11.7019C19.0367 11.7019 19.3761 11.5943 19.6488 11.3792C19.9216 11.161 20.1276 10.8655 20.267 10.4928C20.4094 10.1201 20.4807 9.70037 20.4807 9.2337C20.4807 8.77309 20.411 8.35946 20.2716 7.99279C20.1352 7.62612 19.9291 7.33673 19.6534 7.12461C19.3807 6.91249 19.0397 6.80643 18.6307 6.80643C18.2367 6.80643 17.9034 6.90794 17.6307 7.11097C17.361 7.314 17.1564 7.59734 17.017 7.96097C16.8776 8.32461 16.8079 8.74885 16.8079 9.2337ZM23.3761 15.3428V5.74279H24.7034V6.87461H24.817C24.8958 6.72915 25.0094 6.56097 25.1579 6.37006C25.3064 6.17915 25.5125 6.01249 25.7761 5.87006C26.0397 5.72461 26.3882 5.65188 26.8216 5.65188C27.3852 5.65188 27.8882 5.79431 28.3307 6.07915C28.7731 6.364 29.1201 6.77461 29.3716 7.31097C29.6261 7.84734 29.7534 8.49279 29.7534 9.24734C29.7534 10.0019 29.6276 10.6489 29.3761 11.1882C29.1246 11.7246 28.7791 12.1382 28.3397 12.4292C27.9004 12.717 27.3988 12.861 26.8352 12.861C26.411 12.861 26.064 12.7898 25.7943 12.6473C25.5276 12.5049 25.3185 12.3382 25.167 12.1473C25.0155 11.9564 24.8988 11.7867 24.817 11.6382H24.7352V15.3428H23.3761ZM24.7079 9.2337C24.7079 9.72461 24.7791 10.1549 24.9216 10.5246C25.064 10.8943 25.2701 11.1837 25.5397 11.3928C25.8094 11.5989 26.1397 11.7019 26.5307 11.7019C26.9367 11.7019 27.2761 11.5943 27.5488 11.3792C27.8216 11.161 28.0276 10.8655 28.167 10.4928C28.3094 10.1201 28.3807 9.70037 28.3807 9.2337C28.3807 8.77309 28.311 8.35946 28.1716 7.99279C28.0352 7.62612 27.8291 7.33673 27.5534 7.12461C27.2807 6.91249 26.9397 6.80643 26.5307 6.80643C26.1367 6.80643 25.8034 6.90794 25.5307 7.11097C25.261 7.314 25.0564 7.59734 24.917 7.96097C24.7776 8.32461 24.7079 8.74885 24.7079 9.2337ZM36.4625 5.86097C36.414 5.43067 36.214 5.09734 35.8625 4.86097C35.511 4.62158 35.0685 4.50188 34.5352 4.50188C34.1534 4.50188 33.8231 4.56249 33.5443 4.6837C33.2655 4.80188 33.0488 4.96552 32.8943 5.17461C32.7428 5.38067 32.667 5.61552 32.667 5.87915C32.667 6.10037 32.7185 6.29128 32.8216 6.45188C32.9276 6.61249 33.0655 6.74734 33.2352 6.85643C33.4079 6.96249 33.5928 7.05188 33.7897 7.12461C33.9867 7.19431 34.1761 7.25188 34.3579 7.29734L35.267 7.5337C35.564 7.60643 35.8685 7.70491 36.1807 7.82915C36.4928 7.9534 36.7822 8.11703 37.0488 8.32006C37.3155 8.52309 37.5307 8.77461 37.6943 9.07461C37.861 9.37461 37.9443 9.7337 37.9443 10.1519C37.9443 10.6792 37.8079 11.1473 37.5352 11.5564C37.2655 11.9655 36.8731 12.2882 36.3579 12.5246C35.8458 12.761 35.2261 12.8792 34.4988 12.8792C33.8019 12.8792 33.1988 12.7685 32.6897 12.5473C32.1807 12.3261 31.7822 12.0125 31.4943 11.6064C31.2064 11.1973 31.0473 10.7125 31.017 10.1519H32.4261C32.4534 10.4882 32.5625 10.7685 32.7534 10.9928C32.9473 11.214 33.1943 11.3792 33.4943 11.4882C33.7973 11.5943 34.1291 11.6473 34.4897 11.6473C34.8867 11.6473 35.2397 11.5852 35.5488 11.461C35.861 11.3337 36.1064 11.1579 36.2852 10.9337C36.464 10.7064 36.5534 10.4413 36.5534 10.1382C36.5534 9.86249 36.4746 9.63673 36.317 9.46097C36.1625 9.28522 35.9519 9.13976 35.6852 9.02461C35.4216 8.90946 35.1231 8.80794 34.7897 8.72006L33.6897 8.42006C32.9443 8.21703 32.3534 7.91855 31.917 7.52461C31.4837 7.13067 31.267 6.60946 31.267 5.96097C31.267 5.42461 31.4125 4.95643 31.7034 4.55643C31.9943 4.15643 32.3882 3.84582 32.8852 3.62461C33.3822 3.40037 33.9428 3.28825 34.567 3.28825C35.1973 3.28825 35.7534 3.39885 36.2352 3.62006C36.7201 3.84128 37.1019 4.14582 37.3807 4.5337C37.6594 4.91855 37.8049 5.36097 37.817 5.86097H36.4625ZM42.7727 5.74279V6.8337H38.9591V5.74279H42.7727ZM39.9818 4.07006H41.3409V10.6746C41.3409 10.9382 41.3803 11.1367 41.4591 11.2701C41.5379 11.4004 41.6394 11.4898 41.7636 11.5382C41.8909 11.5837 42.0288 11.6064 42.1772 11.6064C42.2863 11.6064 42.3818 11.5989 42.4636 11.5837C42.5454 11.5685 42.6091 11.5564 42.6545 11.5473L42.9 12.6701C42.8212 12.7004 42.7091 12.7307 42.5636 12.761C42.4182 12.7943 42.2363 12.8125 42.0182 12.8155C41.6606 12.8216 41.3272 12.7579 41.0182 12.6246C40.7091 12.4913 40.4591 12.2852 40.2682 12.0064C40.0772 11.7276 39.9818 11.3776 39.9818 10.9564V4.07006ZM47.142 12.8655C46.4875 12.8655 45.9163 12.7155 45.4284 12.4155C44.9405 12.1155 44.5617 11.6958 44.292 11.1564C44.0223 10.617 43.8875 9.98673 43.8875 9.26552C43.8875 8.54128 44.0223 7.90794 44.292 7.36552C44.5617 6.82309 44.9405 6.40188 45.4284 6.10188C45.9163 5.80188 46.4875 5.65188 47.142 5.65188C47.7966 5.65188 48.3678 5.80188 48.8557 6.10188C49.3435 6.40188 49.7223 6.82309 49.992 7.36552C50.2617 7.90794 50.3966 8.54128 50.3966 9.26552C50.3966 9.98673 50.2617 10.617 49.992 11.1564C49.7223 11.6958 49.3435 12.1155 48.8557 12.4155C48.3678 12.7155 47.7966 12.8655 47.142 12.8655ZM47.1466 11.7246C47.5708 11.7246 47.9223 11.6125 48.2011 11.3882C48.4799 11.164 48.686 10.8655 48.8193 10.4928C48.9557 10.1201 49.0238 9.70946 49.0238 9.26097C49.0238 8.81552 48.9557 8.40643 48.8193 8.0337C48.686 7.65794 48.4799 7.35643 48.2011 7.12915C47.9223 6.90188 47.5708 6.78825 47.1466 6.78825C46.7193 6.78825 46.3647 6.90188 46.0829 7.12915C45.8041 7.35643 45.5966 7.65794 45.4602 8.0337C45.3269 8.40643 45.2602 8.81552 45.2602 9.26097C45.2602 9.70946 45.3269 10.1201 45.4602 10.4928C45.5966 10.8655 45.8041 11.164 46.0829 11.3882C46.3647 11.6125 46.7193 11.7246 47.1466 11.7246ZM51.9136 12.7246V5.74279H53.2272V6.85188H53.3C53.4272 6.47612 53.6515 6.18067 53.9727 5.96552C54.2969 5.74734 54.6636 5.63825 55.0727 5.63825C55.1576 5.63825 55.2576 5.64128 55.3727 5.64734C55.4909 5.6534 55.5833 5.66097 55.65 5.67006V6.97006C55.5954 6.95491 55.4985 6.93825 55.3591 6.92006C55.2197 6.89885 55.0803 6.88825 54.9409 6.88825C54.6197 6.88825 54.3333 6.95643 54.0818 7.09279C53.8333 7.22612 53.6363 7.41249 53.4909 7.65188C53.3454 7.88825 53.2727 8.15794 53.2727 8.46097V12.7246H51.9136ZM59.5852 12.8655C58.8973 12.8655 58.3049 12.7185 57.8079 12.4246C57.314 12.1276 56.9322 11.711 56.6625 11.1746C56.3958 10.6352 56.2625 10.0034 56.2625 9.27915C56.2625 8.564 56.3958 7.9337 56.6625 7.38825C56.9322 6.84279 57.3079 6.41703 57.7897 6.11097C58.2746 5.80491 58.8413 5.65188 59.4897 5.65188C59.8837 5.65188 60.2655 5.71703 60.6352 5.84734C61.0049 5.97764 61.3367 6.18218 61.6307 6.46097C61.9246 6.73976 62.1564 7.10188 62.3261 7.54734C62.4958 7.98976 62.5807 8.52764 62.5807 9.16097V9.64279H57.0307V8.62461H61.2488C61.2488 8.26703 61.1761 7.95037 61.0307 7.67461C60.8852 7.39582 60.6807 7.17612 60.417 7.01552C60.1564 6.85491 59.8504 6.77461 59.4988 6.77461C59.117 6.77461 58.7837 6.86855 58.4988 7.05643C58.217 7.24128 57.9988 7.4837 57.8443 7.7837C57.6928 8.08067 57.617 8.4034 57.617 8.75188V9.54734C57.617 10.014 57.6988 10.411 57.8625 10.7382C58.0291 11.0655 58.261 11.3155 58.5579 11.4882C58.8549 11.6579 59.2019 11.7428 59.5988 11.7428C59.8564 11.7428 60.0913 11.7064 60.3034 11.6337C60.5155 11.5579 60.6988 11.4458 60.8534 11.2973C61.0079 11.1489 61.1261 10.9655 61.2079 10.7473L62.4943 10.9792C62.3913 11.3579 62.2064 11.6898 61.9397 11.9746C61.6761 12.2564 61.3443 12.4761 60.9443 12.6337C60.5473 12.7882 60.0943 12.8655 59.5852 12.8655Z" fill="#1F2026"/>
</svg>
