<svg width="120" height="32" viewBox="0 0 120 32" fill="none" xmlns="http://www.w3.org/2000/svg">
<g clip-path="url(#clip0_2_331)">
<g clip-path="url(#clip1_2_331)">
<mask id="mask0_2_331" style="mask-type:alpha" maskUnits="userSpaceOnUse" x="10" y="6" width="21" height="20">
<path d="M20.45 26C25.9728 26 30.45 21.5228 30.45 16C30.45 10.4771 25.9728 6 20.45 6C14.9271 6 10.45 10.4771 10.45 16C10.45 21.5228 14.9271 26 20.45 26Z" fill="#F4F5F5"/>
</mask>
<g mask="url(#mask0_2_331)">
<path d="M30.45 6H10.45V26H30.45V6Z" fill="#0099B5"/>
<path d="M30.45 19H10.45V26H30.45V19Z" fill="#1EB53A"/>
<path d="M30.45 19H10.45V20H30.45V19Z" fill="#CE1126"/>
<path d="M30.45 12H10.45V13H30.45V12Z" fill="#CE1126"/>
<path d="M30.45 12.5H10.45V19.5H30.45V12.5Z" fill="white"/>
</g>
</g>
<path d="M46.5686 15.9091C46.5686 16.9962 46.3697 17.9309 45.972 18.7131C45.5743 19.492 45.0291 20.0919 44.3364 20.5128C43.647 20.9304 42.8631 21.1392 41.9848 21.1392C41.1032 21.1392 40.316 20.9304 39.6233 20.5128C38.9339 20.0919 38.3903 19.4903 37.9926 18.7081C37.5949 17.9259 37.396 16.9929 37.396 15.9091C37.396 14.822 37.5949 13.889 37.9926 13.1101C38.3903 12.3279 38.9339 11.728 39.6233 11.3104C40.316 10.8894 41.1032 10.679 41.9848 10.679C42.8631 10.679 43.647 10.8894 44.3364 11.3104C45.0291 11.728 45.5743 12.3279 45.972 13.1101C46.3697 13.889 46.5686 14.822 46.5686 15.9091ZM45.0473 15.9091C45.0473 15.0805 44.9131 14.3828 44.6446 13.8161C44.3794 13.246 44.0149 12.8151 43.5508 12.5234C43.0901 12.2285 42.5681 12.081 41.9848 12.081C41.3981 12.081 40.8745 12.2285 40.4138 12.5234C39.9531 12.8151 39.5885 13.246 39.32 13.8161C39.0549 14.3828 38.9223 15.0805 38.9223 15.9091C38.9223 16.7377 39.0549 17.437 39.32 18.0071C39.5885 18.5739 39.9531 19.0047 40.4138 19.2997C40.8745 19.5914 41.3981 19.7372 41.9848 19.7372C42.5681 19.7372 43.0901 19.5914 43.5508 19.2997C44.0149 19.0047 44.3794 18.5739 44.6446 18.0071C44.9131 17.437 45.0473 16.7377 45.0473 15.9091ZM48.2403 14.2188V12.9361C48.2403 12.6312 48.2933 12.3146 48.3994 11.9865C48.5054 11.6584 48.6529 11.3435 48.8419 11.0419C49.0308 10.7403 49.2512 10.4801 49.5031 10.2614L50.3632 10.7884C50.1643 11.0999 50.0085 11.428 49.8958 11.7727C49.7831 12.1174 49.7251 12.4986 49.7218 12.9162V14.2188H48.2403ZM52.0746 21V19.9808L56.211 14.7259V14.6562H52.2089V13.3636H58.0654V14.4474L54.0881 19.6378V19.7074H58.2046V21H52.0746ZM60.0777 21V10.8182H61.5642V14.6016H61.6536C61.7398 14.4425 61.8641 14.2585 62.0265 14.0497C62.1889 13.8409 62.4143 13.6586 62.7027 13.5028C62.991 13.3438 63.3722 13.2642 63.8461 13.2642C64.4626 13.2642 65.0128 13.42 65.4967 13.7315C65.9806 14.0431 66.3601 14.4922 66.6352 15.0788C66.9136 15.6655 67.0528 16.3714 67.0528 17.1967C67.0528 18.022 66.9152 18.7296 66.6402 19.3196C66.3651 19.9062 65.9872 20.3587 65.5066 20.6768C65.026 20.9917 64.4775 21.1491 63.861 21.1491C63.397 21.1491 63.0175 21.0713 62.7225 20.9155C62.4309 20.7597 62.2022 20.5774 62.0365 20.3686C61.8707 20.1598 61.7431 19.9742 61.6536 19.8118H61.5294V21H60.0777ZM61.5343 17.1818C61.5343 17.7187 61.6122 18.1894 61.768 18.5938C61.9238 18.9981 62.1491 19.3146 62.4441 19.5433C62.7391 19.7687 63.1004 19.8814 63.5279 19.8814C63.9721 19.8814 64.3433 19.7637 64.6416 19.5284C64.9399 19.2898 65.1652 18.9666 65.3177 18.5589C65.4735 18.1513 65.5514 17.6922 65.5514 17.1818C65.5514 16.678 65.4751 16.2256 65.3227 15.8246C65.1735 15.4235 64.9482 15.107 64.6465 14.875C64.3483 14.643 63.9754 14.527 63.5279 14.527C63.0971 14.527 62.7325 14.638 62.4342 14.8601C62.1392 15.0821 61.9155 15.392 61.763 15.7898C61.6106 16.1875 61.5343 16.6515 61.5343 17.1818ZM72.0132 21.1541C71.2608 21.1541 70.6129 20.9934 70.0693 20.6719C69.5291 20.3471 69.1114 19.8913 68.8165 19.3047C68.5248 18.7147 68.379 18.0237 68.379 17.2315C68.379 16.4493 68.5248 15.7599 68.8165 15.1634C69.1114 14.5668 69.5224 14.1011 70.0494 13.7663C70.5797 13.4316 71.1995 13.2642 71.9088 13.2642C72.3397 13.2642 72.7573 13.3355 73.1616 13.478C73.566 13.6205 73.9289 13.8442 74.2504 14.1491C74.5719 14.4541 74.8255 14.8501 75.0111 15.3374C75.1967 15.8213 75.2895 16.4096 75.2895 17.1023V17.6293H69.2192V16.5156H73.8328C73.8328 16.1245 73.7533 15.7782 73.5942 15.4766C73.4351 15.1716 73.2114 14.9313 72.923 14.7557C72.638 14.58 72.3032 14.4922 71.9187 14.4922C71.5011 14.4922 71.1365 14.5949 70.825 14.8004C70.5168 15.0026 70.2781 15.2678 70.1091 15.5959C69.9434 15.9207 69.8605 16.2737 69.8605 16.6548V17.5249C69.8605 18.0353 69.95 18.4695 70.129 18.8274C70.3113 19.1854 70.5648 19.4588 70.8896 19.6477C71.2144 19.8333 71.5939 19.9261 72.0281 19.9261C72.3098 19.9261 72.5667 19.8864 72.7987 19.8068C73.0307 19.724 73.2312 19.6013 73.4003 19.4389C73.5693 19.2765 73.6986 19.076 73.7881 18.8374L75.195 19.0909C75.0823 19.5052 74.8802 19.8681 74.5885 20.1797C74.3001 20.4879 73.9372 20.7282 73.4997 20.9006C73.0655 21.0696 72.57 21.1541 72.0132 21.1541ZM78.306 18.4098L78.296 16.5952H78.5546L81.5972 13.3636H83.377L79.9068 17.0426H79.6732L78.306 18.4098ZM76.9388 21V10.8182H78.4253V21H76.9388ZM81.7612 21L79.0269 17.3707L80.051 16.3317L83.5858 21H81.7612ZM87.6339 21.1541C86.8948 21.1541 86.2585 20.9867 85.7248 20.652C85.1945 20.3139 84.7869 19.8482 84.5018 19.255C84.2168 18.6617 84.0743 17.9822 84.0743 17.2166C84.0743 16.4411 84.2201 15.7566 84.5118 15.1634C84.8034 14.5668 85.2144 14.1011 85.7447 13.7663C86.275 13.4316 86.8998 13.2642 87.619 13.2642C88.199 13.2642 88.7161 13.3719 89.1702 13.5874C89.6242 13.7995 89.9905 14.0978 90.2689 14.4822C90.5506 14.8667 90.718 15.3158 90.771 15.8295H89.3243C89.2447 15.4716 89.0624 15.1634 88.7774 14.9048C88.4957 14.6463 88.1178 14.517 87.6439 14.517C87.2296 14.517 86.8667 14.6264 86.5551 14.8452C86.2469 15.0606 86.0066 15.3688 85.8342 15.7699C85.6619 16.1676 85.5757 16.6383 85.5757 17.1818C85.5757 17.7386 85.6602 18.2192 85.8293 18.6236C85.9983 19.0279 86.2369 19.3411 86.5452 19.5632C86.8567 19.7853 87.223 19.8963 87.6439 19.8963C87.9256 19.8963 88.1808 19.8449 88.4095 19.7422C88.6415 19.6361 88.8354 19.4853 88.9912 19.2898C89.1503 19.0942 89.2613 18.8589 89.3243 18.5838H90.771C90.718 19.0777 90.5572 19.5185 90.2888 19.9062C90.0203 20.294 89.6607 20.599 89.2099 20.821C88.7625 21.0431 88.2372 21.1541 87.6339 21.1541ZM93.8472 16.4659V21H92.3607V10.8182H93.8273V14.6065H93.9218C94.1007 14.1955 94.3742 13.8691 94.7421 13.6271C95.11 13.3852 95.5906 13.2642 96.1838 13.2642C96.7075 13.2642 97.1649 13.3719 97.556 13.5874C97.9504 13.8028 98.2553 14.1243 98.4708 14.5518C98.6895 14.9761 98.7989 15.5064 98.7989 16.1428V21H97.3124V16.3217C97.3124 15.7616 97.1682 15.3274 96.8799 15.0192C96.5915 14.7076 96.1905 14.5518 95.6767 14.5518C95.3254 14.5518 95.0105 14.6264 94.7321 14.7756C94.457 14.9247 94.2399 15.1435 94.0808 15.4318C93.9251 15.7169 93.8472 16.0616 93.8472 16.4659ZM103.005 21.169C102.521 21.169 102.083 21.0795 101.692 20.9006C101.301 20.7183 100.991 20.4548 100.763 20.1101C100.537 19.7654 100.425 19.3428 100.425 18.8423C100.425 18.4115 100.507 18.0568 100.673 17.7784C100.839 17.5 101.063 17.2796 101.344 17.1172C101.626 16.9548 101.941 16.8321 102.289 16.7493C102.637 16.6664 102.992 16.6035 103.353 16.5604C103.81 16.5073 104.181 16.4643 104.467 16.4311C104.752 16.3946 104.959 16.3366 105.088 16.2571C105.217 16.1776 105.282 16.0483 105.282 15.8693V15.8345C105.282 15.4003 105.159 15.0639 104.914 14.8253C104.672 14.5866 104.311 14.4673 103.83 14.4673C103.33 14.4673 102.935 14.5784 102.647 14.8004C102.362 15.0192 102.165 15.2628 102.055 15.5312L100.658 15.2131C100.824 14.7491 101.066 14.3745 101.384 14.0895C101.706 13.8011 102.075 13.5923 102.493 13.4631C102.91 13.3305 103.35 13.2642 103.81 13.2642C104.115 13.2642 104.438 13.3007 104.78 13.3736C105.124 13.4432 105.446 13.5724 105.744 13.7614C106.046 13.9503 106.293 14.2204 106.485 14.5717C106.677 14.9197 106.773 15.3722 106.773 15.929V21H105.322V19.956H105.262C105.166 20.1482 105.022 20.3371 104.829 20.5227C104.637 20.7083 104.39 20.8625 104.089 20.9851C103.787 21.1077 103.426 21.169 103.005 21.169ZM103.328 19.9759C103.739 19.9759 104.09 19.8946 104.382 19.7322C104.677 19.5698 104.901 19.3577 105.053 19.0959C105.209 18.8307 105.287 18.5473 105.287 18.2457V17.2614C105.234 17.3144 105.131 17.3641 104.979 17.4105C104.829 17.4536 104.659 17.4917 104.467 17.5249C104.274 17.5547 104.087 17.5829 103.905 17.6094C103.722 17.6326 103.57 17.6525 103.447 17.669C103.159 17.7055 102.895 17.7668 102.657 17.853C102.422 17.9392 102.233 18.0634 102.09 18.2259C101.951 18.3849 101.881 18.5971 101.881 18.8622C101.881 19.2301 102.017 19.5085 102.289 19.6974C102.561 19.883 102.907 19.9759 103.328 19.9759Z" fill="#1F2026"/>
</g>
<defs>
<clipPath id="clip0_2_331">
<rect x="0.449951" width="119.15" height="32" rx="2" fill="white"/>
</clipPath>
<clipPath id="clip1_2_331">
<rect x="10.45" y="6" width="20" height="20" rx="10" fill="white"/>
</clipPath>
</defs>
</svg>
