<svg width="47" height="38" viewBox="0 0 47 38" fill="none" xmlns="http://www.w3.org/2000/svg">
<path fill-rule="evenodd" clip-rule="evenodd" d="M27.3504 17.5C27.3504 20.2614 25.1118 22.5 22.3504 22.5C19.589 22.5 17.3504 20.2614 17.3504 17.5C17.3504 14.7386 19.589 12.5 22.3504 12.5C25.1118 12.5 27.3504 14.7386 27.3504 17.5ZM26.1902 22.7451C25.1144 23.5341 23.7868 24 22.3504 24C18.7606 24 15.8504 21.0899 15.8504 17.5C15.8504 13.9102 18.7606 11 22.3504 11C25.9403 11 28.8504 13.9102 28.8504 17.5C28.8504 18.9364 28.3845 20.264 27.5955 21.3398L31.5594 25.3036C31.9474 25.6917 31.9474 26.3209 31.5594 26.709C31.1713 27.097 30.5421 27.097 30.154 26.709L26.1902 22.7451Z" fill="#595B66"/>
</svg>
