<svg width="25" height="25" viewBox="0 0 25 25" fill="none" xmlns="http://www.w3.org/2000/svg">
<path d="M8.54998 4.03003C11.1179 4.03003 12.6 6.18237 12.6 6.18237C12.6 6.18237 14.085 4.03003 16.65 4.03003C19.305 4.03003 21.6 6.10003 21.6 8.98003C21.6 13.2105 15.1604 17.6497 12.9651 19.5903C12.7582 19.7732 12.4418 19.7732 12.2349 19.5903C10.0405 17.6509 3.59998 13.2103 3.59998 8.98003C3.59998 6.10003 5.89498 4.03003 8.54998 4.03003Z" fill="white" fill-opacity="0.6"/>
<path d="M3.59998 8.89489C3.59998 6.233 5.75015 4.03003 8.46484 4.03003C10.5868 4.03003 11.9592 5.38879 12.6 6.21676C13.2408 5.38879 14.6132 4.03003 16.7351 4.03003C19.4506 4.03003 21.6 6.23305 21.6 8.89489C21.6 10.0599 21.1328 11.2162 20.4534 12.295C19.7716 13.3776 18.852 14.4203 17.89 15.3677C16.5567 16.6808 15.0757 17.8687 14.0134 18.7207C13.5618 19.0829 13.1859 19.3844 12.9293 19.609C12.7407 19.7739 12.4592 19.7739 12.2707 19.609C12.014 19.3844 11.6381 19.0829 11.1866 18.7207C10.1243 17.8687 8.64324 16.6808 7.30995 15.3677C6.348 14.4203 5.42834 13.3776 4.74657 12.295C4.06722 11.2162 3.59998 10.0599 3.59998 8.89489ZM8.46484 5.03003C6.30927 5.03003 4.59998 6.77841 4.59998 8.89489C4.59998 9.79746 4.96551 10.7661 5.59275 11.7621C6.21757 12.7542 7.07831 13.736 8.01163 14.6552C9.31031 15.9342 10.6842 17.035 11.7339 17.8761C12.0573 18.1352 12.3498 18.3696 12.6 18.577C12.8501 18.3696 13.1427 18.1352 13.466 17.8761C14.5158 17.035 15.8897 15.9342 17.1883 14.6552C18.1217 13.736 18.9824 12.7542 19.6072 11.7621C20.2345 10.7661 20.6 9.79746 20.6 8.89489C20.6 6.77836 18.8914 5.03003 16.7351 5.03003C14.6406 5.03003 13.4181 6.73214 13.1033 7.24031C12.8727 7.61253 12.3272 7.61252 12.0967 7.2403C11.7819 6.73213 10.5594 5.03003 8.46484 5.03003Z" fill="#1F2026"/>
</svg>
