<svg width="102" height="25" viewBox="0 0 102 25" fill="none" xmlns="http://www.w3.org/2000/svg">
<path d="M21.0845 11.4548L16.9378 9.09766L13.6349 12.4005L16.9378 15.7033L21.0845 13.3463C21.8193 12.9315 21.8193 11.8694 21.0845 11.4548Z" fill="url(#paint0_linear_1_26911)"/>
<path d="M13.635 12.4001L3.77011 2.53516C3.57369 2.73158 3.45001 2.99348 3.45001 3.30631V21.4938C3.45001 21.8067 3.57369 22.0758 3.77011 22.265L13.635 12.4001Z" fill="url(#paint1_linear_1_26911)"/>
<path d="M16.9377 9.09772L5.07953 2.36107C4.62119 2.09916 4.0974 2.21556 3.77002 2.53566L13.635 12.4006L16.9377 9.09772Z" fill="url(#paint2_linear_1_26911)"/>
<path d="M13.635 12.4004L3.77002 22.2653C4.0974 22.5926 4.62119 22.7018 5.07953 22.4399L16.9377 15.7032L13.635 12.4004Z" fill="url(#paint3_linear_1_26911)"/>
<path d="M36.5027 10.3564C36.4148 10.0807 36.2967 9.8337 36.1482 9.61552C36.0027 9.39431 35.8285 9.20643 35.6254 9.05188C35.4224 8.89431 35.1906 8.77461 34.93 8.69279C34.6724 8.61097 34.3891 8.57006 34.08 8.57006C33.5558 8.57006 33.083 8.70491 32.6618 8.97461C32.2406 9.24431 31.9073 9.63976 31.6618 10.161C31.4194 10.6792 31.2982 11.314 31.2982 12.0655C31.2982 12.8201 31.4209 13.4579 31.6664 13.9792C31.9118 14.5004 32.2482 14.8958 32.6754 15.1655C33.1027 15.4352 33.5891 15.5701 34.1345 15.5701C34.6406 15.5701 35.0815 15.467 35.4573 15.261C35.8361 15.0549 36.1285 14.764 36.3345 14.3882C36.5436 14.0095 36.6482 13.564 36.6482 13.0519L37.0118 13.1201H34.3482V11.961H38.0073V13.0201C38.0073 13.8019 37.8406 14.4807 37.5073 15.0564C37.177 15.6292 36.7194 16.0716 36.1345 16.3837C35.5527 16.6958 34.8861 16.8519 34.1345 16.8519C33.2921 16.8519 32.5527 16.6579 31.9164 16.2701C31.283 15.8822 30.7891 15.3322 30.4345 14.6201C30.08 13.9049 29.9027 13.0564 29.9027 12.0746C29.9027 11.3322 30.0058 10.6655 30.2118 10.0746C30.4179 9.4837 30.7073 8.98218 31.08 8.57006C31.4558 8.15491 31.8967 7.83825 32.4027 7.62006C32.9118 7.39885 33.4679 7.28825 34.0709 7.28825C34.5739 7.28825 35.0421 7.36249 35.4754 7.51097C35.9118 7.65946 36.2997 7.87006 36.6391 8.14279C36.9815 8.41552 37.2648 8.73976 37.4891 9.11552C37.7133 9.48825 37.8648 9.90188 37.9436 10.3564H36.5027ZM42.622 16.8655C41.9675 16.8655 41.3963 16.7155 40.9084 16.4155C40.4205 16.1155 40.0417 15.6958 39.772 15.1564C39.5023 14.617 39.3675 13.9867 39.3675 13.2655C39.3675 12.5413 39.5023 11.9079 39.772 11.3655C40.0417 10.8231 40.4205 10.4019 40.9084 10.1019C41.3963 9.80188 41.9675 9.65188 42.622 9.65188C43.2766 9.65188 43.8478 9.80188 44.3357 10.1019C44.8236 10.4019 45.2023 10.8231 45.472 11.3655C45.7417 11.9079 45.8766 12.5413 45.8766 13.2655C45.8766 13.9867 45.7417 14.617 45.472 15.1564C45.2023 15.6958 44.8236 16.1155 44.3357 16.4155C43.8478 16.7155 43.2766 16.8655 42.622 16.8655ZM42.6266 15.7246C43.0508 15.7246 43.4023 15.6125 43.6811 15.3882C43.9599 15.164 44.166 14.8655 44.2993 14.4928C44.4357 14.1201 44.5039 13.7095 44.5039 13.261C44.5039 12.8155 44.4357 12.4064 44.2993 12.0337C44.166 11.6579 43.9599 11.3564 43.6811 11.1292C43.4023 10.9019 43.0508 10.7882 42.6266 10.7882C42.1993 10.7882 41.8448 10.9019 41.5629 11.1292C41.2842 11.3564 41.0766 11.6579 40.9402 12.0337C40.8069 12.4064 40.7402 12.8155 40.7402 13.261C40.7402 13.7095 40.8069 14.1201 40.9402 14.4928C41.0766 14.8655 41.2842 15.164 41.5629 15.3882C41.8448 15.6125 42.1993 15.7246 42.6266 15.7246ZM50.3345 16.8655C49.68 16.8655 49.1088 16.7155 48.6209 16.4155C48.133 16.1155 47.7542 15.6958 47.4845 15.1564C47.2148 14.617 47.08 13.9867 47.08 13.2655C47.08 12.5413 47.2148 11.9079 47.4845 11.3655C47.7542 10.8231 48.133 10.4019 48.6209 10.1019C49.1088 9.80188 49.68 9.65188 50.3345 9.65188C50.9891 9.65188 51.5603 9.80188 52.0482 10.1019C52.5361 10.4019 52.9148 10.8231 53.1845 11.3655C53.4542 11.9079 53.5891 12.5413 53.5891 13.2655C53.5891 13.9867 53.4542 14.617 53.1845 15.1564C52.9148 15.6958 52.5361 16.1155 52.0482 16.4155C51.5603 16.7155 50.9891 16.8655 50.3345 16.8655ZM50.3391 15.7246C50.7633 15.7246 51.1148 15.6125 51.3936 15.3882C51.6724 15.164 51.8785 14.8655 52.0118 14.4928C52.1482 14.1201 52.2164 13.7095 52.2164 13.261C52.2164 12.8155 52.1482 12.4064 52.0118 12.0337C51.8785 11.6579 51.6724 11.3564 51.3936 11.1292C51.1148 10.9019 50.7633 10.7882 50.3391 10.7882C49.9118 10.7882 49.5573 10.9019 49.2754 11.1292C48.9967 11.3564 48.7891 11.6579 48.6527 12.0337C48.5194 12.4064 48.4527 12.8155 48.4527 13.261C48.4527 13.7095 48.5194 14.1201 48.6527 14.4928C48.7891 14.8655 48.9967 15.164 49.2754 15.3882C49.5573 15.6125 49.9118 15.7246 50.3391 15.7246ZM58.0334 19.4882C57.4789 19.4882 57.0016 19.4155 56.6016 19.2701C56.2046 19.1246 55.8804 18.9322 55.6289 18.6928C55.3773 18.4534 55.1895 18.1913 55.0652 17.9064L56.2334 17.4246C56.3152 17.5579 56.4243 17.6989 56.5607 17.8473C56.7001 17.9989 56.8879 18.1276 57.1243 18.2337C57.3637 18.3398 57.6713 18.3928 58.047 18.3928C58.5622 18.3928 58.9879 18.267 59.3243 18.0155C59.6607 17.767 59.8289 17.3701 59.8289 16.8246V15.4519H59.7425C59.6607 15.6004 59.5425 15.7655 59.3879 15.9473C59.2364 16.1292 59.0273 16.2867 58.7607 16.4201C58.494 16.5534 58.147 16.6201 57.7198 16.6201C57.1683 16.6201 56.6713 16.4913 56.2289 16.2337C55.7895 15.9731 55.441 15.5898 55.1834 15.0837C54.9289 14.5746 54.8016 13.9489 54.8016 13.2064C54.8016 12.464 54.9273 11.8276 55.1789 11.2973C55.4334 10.767 55.7819 10.361 56.2243 10.0792C56.6667 9.79431 57.1683 9.65188 57.7289 9.65188C58.1622 9.65188 58.5122 9.72461 58.7789 9.87006C59.0455 10.0125 59.2531 10.1792 59.4016 10.3701C59.5531 10.561 59.6698 10.7292 59.7516 10.8746H59.8516V9.74279H61.1834V16.8792C61.1834 17.4792 61.044 17.9716 60.7652 18.3564C60.4864 18.7413 60.1092 19.0261 59.6334 19.211C59.1607 19.3958 58.6273 19.4882 58.0334 19.4882ZM58.0198 15.4928C58.4107 15.4928 58.741 15.4019 59.0107 15.2201C59.2834 15.0352 59.4895 14.7716 59.6289 14.4292C59.7713 14.0837 59.8425 13.6701 59.8425 13.1882C59.8425 12.7185 59.7728 12.3049 59.6334 11.9473C59.494 11.5898 59.2895 11.311 59.0198 11.111C58.7501 10.9079 58.4167 10.8064 58.0198 10.8064C57.6107 10.8064 57.2698 10.9125 56.997 11.1246C56.7243 11.3337 56.5183 11.6185 56.3789 11.9792C56.2425 12.3398 56.1743 12.7428 56.1743 13.1882C56.1743 13.6458 56.244 14.0473 56.3834 14.3928C56.5228 14.7382 56.7289 15.0079 57.0016 15.2019C57.2773 15.3958 57.6167 15.4928 58.0198 15.4928ZM64.3652 7.41552V16.7246H63.0061V7.41552H64.3652ZM69.2027 16.8655C68.5148 16.8655 67.9224 16.7185 67.4254 16.4246C66.9315 16.1276 66.5497 15.711 66.28 15.1746C66.0133 14.6352 65.88 14.0034 65.88 13.2792C65.88 12.564 66.0133 11.9337 66.28 11.3882C66.5497 10.8428 66.9254 10.417 67.4073 10.111C67.8921 9.80491 68.4588 9.65188 69.1073 9.65188C69.5012 9.65188 69.883 9.71703 70.2527 9.84734C70.6224 9.97764 70.9542 10.1822 71.2482 10.461C71.5421 10.7398 71.7739 11.1019 71.9436 11.5473C72.1133 11.9898 72.1982 12.5276 72.1982 13.161V13.6428H66.6482V12.6246H70.8664C70.8664 12.267 70.7936 11.9504 70.6482 11.6746C70.5027 11.3958 70.2982 11.1761 70.0345 11.0155C69.7739 10.8549 69.4679 10.7746 69.1164 10.7746C68.7345 10.7746 68.4012 10.8685 68.1164 11.0564C67.8345 11.2413 67.6164 11.4837 67.4618 11.7837C67.3103 12.0807 67.2345 12.4034 67.2345 12.7519V13.5473C67.2345 14.014 67.3164 14.411 67.48 14.7382C67.6467 15.0655 67.8785 15.3155 68.1754 15.4882C68.4724 15.6579 68.8194 15.7428 69.2164 15.7428C69.4739 15.7428 69.7088 15.7064 69.9209 15.6337C70.133 15.5579 70.3164 15.4458 70.4709 15.2973C70.6254 15.1489 70.7436 14.9655 70.8254 14.7473L72.1118 14.9792C72.0088 15.3579 71.8239 15.6898 71.5573 15.9746C71.2936 16.2564 70.9618 16.4761 70.5618 16.6337C70.1648 16.7882 69.7118 16.8655 69.2027 16.8655ZM77.2027 16.7246V7.41552H80.5209C81.2451 7.41552 81.8451 7.54734 82.3209 7.81097C82.7967 8.07461 83.1527 8.43521 83.3891 8.89279C83.6254 9.34734 83.7436 9.85946 83.7436 10.4292C83.7436 11.0019 83.6239 11.517 83.3845 11.9746C83.1482 12.4292 82.7906 12.7898 82.3118 13.0564C81.8361 13.3201 81.2376 13.4519 80.5164 13.4519H78.2345V12.261H80.3891C80.8467 12.261 81.2179 12.1822 81.5027 12.0246C81.7876 11.864 81.9967 11.6458 82.13 11.3701C82.2633 11.0943 82.33 10.7807 82.33 10.4292C82.33 10.0776 82.2633 9.76552 82.13 9.49279C81.9967 9.22006 81.7861 9.00643 81.4982 8.85188C81.2133 8.69734 80.8376 8.62006 80.3709 8.62006H78.6073V16.7246H77.2027ZM86.6402 7.41552V16.7246H85.2811V7.41552H86.6402ZM90.5004 16.8792C90.058 16.8792 89.658 16.7973 89.3004 16.6337C88.9429 16.467 88.6595 16.2261 88.4504 15.911C88.2444 15.5958 88.1414 15.2095 88.1414 14.7519C88.1414 14.3579 88.2171 14.0337 88.3686 13.7792C88.5201 13.5246 88.7247 13.3231 88.9823 13.1746C89.2398 13.0261 89.5277 12.914 89.8459 12.8382C90.1641 12.7625 90.4883 12.7049 90.8186 12.6655C91.2368 12.617 91.5762 12.5776 91.8368 12.5473C92.0974 12.514 92.2868 12.461 92.405 12.3882C92.5232 12.3155 92.5823 12.1973 92.5823 12.0337V12.0019C92.5823 11.6049 92.4701 11.2973 92.2459 11.0792C92.0247 10.861 91.6944 10.7519 91.255 10.7519C90.7974 10.7519 90.4368 10.8534 90.1732 11.0564C89.9126 11.2564 89.7323 11.4792 89.6323 11.7246L88.355 11.4337C88.5065 11.0095 88.7277 10.667 89.0186 10.4064C89.3126 10.1428 89.6504 9.95188 90.0323 9.8337C90.4141 9.71249 90.8156 9.65188 91.2368 9.65188C91.5156 9.65188 91.8111 9.68522 92.1232 9.75188C92.4383 9.81552 92.7323 9.9337 93.005 10.1064C93.2808 10.2792 93.5065 10.5261 93.6823 10.8473C93.858 11.1655 93.9459 11.5792 93.9459 12.0882V16.7246H92.6186V15.7701H92.5641C92.4762 15.9458 92.3444 16.1185 92.1686 16.2882C91.9929 16.4579 91.7671 16.5989 91.4914 16.711C91.2156 16.8231 90.8853 16.8792 90.5004 16.8792ZM90.7959 15.7882C91.1717 15.7882 91.4929 15.714 91.7595 15.5655C92.0292 15.417 92.2338 15.2231 92.3732 14.9837C92.5156 14.7413 92.5868 14.4822 92.5868 14.2064V13.3064C92.5383 13.3549 92.4444 13.4004 92.305 13.4428C92.1686 13.4822 92.0126 13.517 91.8368 13.5473C91.6611 13.5746 91.4898 13.6004 91.3232 13.6246C91.1565 13.6458 91.0171 13.664 90.905 13.6792C90.6414 13.7125 90.4004 13.7685 90.1823 13.8473C89.9671 13.9261 89.7944 14.0398 89.6641 14.1882C89.5368 14.3337 89.4732 14.5276 89.4732 14.7701C89.4732 15.1064 89.5974 15.361 89.8459 15.5337C90.0944 15.7034 90.4111 15.7882 90.7959 15.7882ZM96.3652 19.3428C96.1622 19.3428 95.9773 19.3261 95.8107 19.2928C95.644 19.2625 95.5198 19.2292 95.4379 19.1928L95.7652 18.0792C96.0137 18.1458 96.2349 18.1746 96.4289 18.1655C96.6228 18.1564 96.794 18.0837 96.9425 17.9473C97.094 17.811 97.2273 17.5882 97.3425 17.2792L97.5107 16.8155L94.9561 9.74279H96.4107L98.1789 15.161H98.2516L100.02 9.74279H101.479L98.6016 17.6564C98.4682 18.0201 98.2986 18.3276 98.0925 18.5792C97.8864 18.8337 97.641 19.0246 97.3561 19.1519C97.0713 19.2792 96.741 19.3428 96.3652 19.3428Z" fill="#1F2026"/>
<defs>
<linearGradient id="paint0_linear_1_26911" x1="13.6349" y1="12.4005" x2="21.6375" y2="12.4005" gradientUnits="userSpaceOnUse">
<stop stop-color="#FFBD00"/>
<stop offset="1" stop-color="#FFE000"/>
</linearGradient>
<linearGradient id="paint1_linear_1_26911" x1="13.635" y1="12.4001" x2="3.45001" y2="22.585" gradientUnits="userSpaceOnUse">
<stop stop-color="#00BEFF"/>
<stop offset="1" stop-color="#00E3FF"/>
</linearGradient>
<linearGradient id="paint2_linear_1_26911" x1="3.44997" y1="2.21555" x2="13.635" y2="12.4005" gradientUnits="userSpaceOnUse">
<stop stop-color="#15CF74"/>
<stop offset="1" stop-color="#00F076"/>
</linearGradient>
<linearGradient id="paint3_linear_1_26911" x1="13.635" y1="12.4004" x2="3.44997" y2="22.5853" gradientUnits="userSpaceOnUse">
<stop stop-color="#FF3A44"/>
<stop offset="1" stop-color="#E12653"/>
</linearGradient>
</defs>
</svg>
