<svg width="39" height="15" viewBox="0 0 39 15" fill="none" xmlns="http://www.w3.org/2000/svg">
<path d="M7.59994 10.1242L11.2049 12.3001L10.2483 8.19924L13.4333 5.44007L9.2391 5.08424L7.59994 1.21674L5.96077 5.08424L1.7666 5.44007L4.9516 8.19924L3.99493 12.3001L7.59994 10.1242Z" fill="#FFB54C"/>
<path d="M18.4619 9.70007V9.09553L22.0932 3.30462H22.5386V4.31882H22.2085L19.2932 8.98019V9.03189H24.054V9.70007H18.4619ZM22.2642 11.4501V9.50916V9.23075V3.30462H22.9722V11.4501H22.2642ZM25.8776 11.5097C25.7211 11.5097 25.5859 11.4541 25.4719 11.3427C25.3605 11.2287 25.3048 11.0934 25.3048 10.937C25.3048 10.7779 25.3605 10.6427 25.4719 10.5313C25.5859 10.42 25.7211 10.3643 25.8776 10.3643C26.0366 10.3643 26.1719 10.42 26.2832 10.5313C26.3946 10.6427 26.4503 10.7779 26.4503 10.937C26.4503 11.0404 26.4238 11.1359 26.3707 11.2234C26.3204 11.3109 26.2514 11.3811 26.1639 11.4342C26.0791 11.4845 25.9836 11.5097 25.8776 11.5097ZM30.6881 3.19325C31.0275 3.19591 31.3562 3.26485 31.6744 3.40007C31.9953 3.53265 32.2843 3.74742 32.5415 4.04439C32.7987 4.33871 33.0028 4.73113 33.154 5.22166C33.3051 5.70954 33.3807 6.31011 33.3807 7.02337C33.3807 7.6889 33.3223 8.29875 33.2057 8.85291C33.089 9.40708 32.914 9.88701 32.6807 10.2927C32.45 10.6957 32.1583 11.0086 31.8057 11.2313C31.4557 11.4514 31.046 11.5614 30.5767 11.5614C30.1392 11.5614 29.7508 11.47 29.4114 11.287C29.0746 11.1041 28.8015 10.8508 28.592 10.5273C28.3826 10.2012 28.2527 9.82469 28.2023 9.3978H28.9341C29.0057 9.83265 29.1807 10.1906 29.4591 10.4717C29.7402 10.7527 30.1127 10.8933 30.5767 10.8933C31.2422 10.8933 31.7593 10.583 32.1278 9.96257C32.4964 9.34212 32.6807 8.45916 32.6807 7.31371H32.629C32.5017 7.55235 32.3347 7.76049 32.1278 7.93814C31.9237 8.11579 31.6903 8.255 31.4278 8.35576C31.1653 8.45386 30.8883 8.50291 30.5966 8.50291C30.1432 8.50291 29.7282 8.3889 29.3517 8.16087C28.9752 7.93019 28.6742 7.61598 28.4489 7.21826C28.2235 6.81788 28.1108 6.36182 28.1108 5.85007C28.1108 5.3675 28.2169 4.92469 28.429 4.52166C28.6437 4.11598 28.9434 3.7925 29.3278 3.55121C29.715 3.30727 30.1684 3.18795 30.6881 3.19325ZM30.6881 3.86144C30.3354 3.86144 30.0186 3.95159 29.7375 4.13189C29.4591 4.30954 29.2377 4.5495 29.0733 4.85178C28.9116 5.1514 28.8307 5.48416 28.8307 5.85007C28.8307 6.21863 28.9116 6.55405 29.0733 6.85632C29.2377 7.15594 29.4591 7.39458 29.7375 7.57223C30.0186 7.74723 30.3354 7.83473 30.6881 7.83473C30.9585 7.83473 31.2104 7.78038 31.4437 7.67166C31.6771 7.5603 31.8786 7.40916 32.0483 7.21826C32.2206 7.02735 32.3506 6.81125 32.4381 6.56996C32.5282 6.32602 32.564 6.07015 32.5455 5.80235C32.5136 5.43113 32.4142 5.09969 32.2472 4.80803C32.0828 4.51371 31.8653 4.28303 31.5949 4.11598C31.3271 3.94629 31.0248 3.86144 30.6881 3.86144Z" fill="#8B8E99"/>
</svg>
